<?xml version="1.0" encoding="UTF-8"?>
<!-- Generator: Adobe Illustrator 23.0.1, SVG Export Plug-In . SVG Version: 6.00 Build 0)  -->
<svg version="1.1" xmlns="http://www.w3.org/2000/svg" xmlns:xlink="http://www.w3.org/1999/xlink" x="0px" y="0px" width="318px" height="317.2px" viewBox="0 0 318 317.2" style="enable-background:new 0 0 318 317.2;" xml:space="preserve">
<style type="text/css">
	.st0{fill:#5B69DA;}
	.st1{fill:#6979F8;}
	.st2{fill:#606FE6;}
	.st3{opacity:5.000000e-02;enable-background:new    ;}
	.st4{fill:#FF647C;}
	.st5{fill:#282E5E;}
	.st6{fill:#FFC7A6;}
	.st7{fill:#505DBF;}
	.st8{fill:#4651A6;stroke:#4651A6;stroke-width:0.75;stroke-miterlimit:10;}
	.st9{fill:#282E5E;stroke:#282E5E;stroke-width:0.25;stroke-miterlimit:10;}
	.st10{fill:#20254D;}
	.st11{fill:#1B1C1C;}
</style>
<g id="Camada_2">
	<path class="st0" d="M302.6,194L165.1,308.4c-12.4,10.4-31.1,8.6-41.4-3.8L9.3,167.2c-10.4-12.4-8.6-31.1,3.8-41.4L150.5,11.4   c12.4-10.4,31.1-8.6,41.4,3.8l114.4,137.4C316.7,165,315,183.7,302.6,194z"/>
	<path class="st1" d="M277.5,188.1l-113.6,94.6c-10.3,8.6-25.7,7.2-34.3-3.1L35,165.9c-8.6-10.3-7.2-25.7,3.1-34.3l113.6-94.6   c10.3-8.6,25.7-7.2,34.3,3.1l94.6,113.6C289.2,164.1,287.8,179.5,277.5,188.1z"/>
	<path class="st2" d="M242.7,179.9l-80.5,67.1c-7.3,6.1-18.2,5.1-24.3-2.2l-67.1-80.5c-6.1-7.3-5.1-18.2,2.2-24.3l80.5-67.1   c7.3-6.1,18.2-5.1,24.3,2.2l67.1,80.5C250.9,162.9,249.9,173.8,242.7,179.9z"/>
</g>
<g id="Camada_1">
	<ellipse class="st3" cx="168.5" cy="241" rx="147.5" ry="21"/>
	<ellipse class="st3" cx="168.5" cy="238.2" rx="106.8" ry="15.2"/>
	<path class="st4" d="M177,93.8c0,0-0.6,10.9-4.4,16.5c0,0,1.2-16.8,0.3-19.6C172.1,87.9,177,93.8,177,93.8z"/>
	<path class="st5" d="M185.9,95.2c0,0,3.1,1.9,2.8,3.7s-2.2,1.9-4.7,0s-7.8-5.6-9.6-6.5c-1.9-0.9-10.6-9.3-10.3-11.2   s3.4-3.1,5.9-0.6s9.9,7.5,11.8,10.9S185.9,95.2,185.9,95.2z"/>
	<path class="st6" d="M141,85.4c0,0-3.4,5-2.5,12.1c-0.3,0.6-2.5,2.5-1.2,3.4c1.2,0.9,1.2,2.8,1.2,4.4s1.2,4.7,7.8,3.1   s4.4-12.1,4.4-12.1S150.3,86,141,85.4z"/>
	<path class="st4" d="M141,85.4c0,0,2.2-4.7,12.1-3.7s17.7,1.2,20.2,1.2s4.4,3.1,5.3,4.8c-2.2-0.2-4.1,0.1-8.8,0.1s-7.1,0.6-7.1,0.6   s4,8.1,4,32.3c0,3.4,0.9,5.3,1.2,7.1c0.3,1.8-0.6,5-0.6,5s0.3-15.2-9.6-20.2c0,0-6.5,7.8-10.3,9.9c-3.7,2.2-11.8,5.9-6.2,17.7   c-1.6-0.6-5.9-4.7-3.4-14.3s6.5-4.4,9.3-14.9C150,100.6,147.2,96.3,141,85.4z"/>
	<g>
		<g>
			<path class="st7" d="M144.9,236.1l-1-1.2c3.3-2.7,6.1-3.2,9.7-3.8c4.4-0.7,10.5-1.7,21.2-7.8c8.6-4.9,13-11.1,13.7-19.7     c0.7-7.7-1.8-16.8-4.8-27c-4.1-13.9,0.3-32,3.8-46.5c1.6-6.8,3.2-13.3,3.6-18.1c1.2-14.9-5.2-36.8-5.3-37l1.5-0.4     c0.1,0.2,6.6,22.4,5.3,37.6c-0.4,5-2,11.5-3.6,18.4c-3.5,14.4-7.8,32.2-3.9,45.7c3,10.4,5.5,19.6,4.8,27.6     c-0.7,9.1-5.3,15.7-14.5,20.9c-10.9,6.2-17.2,7.2-21.7,8C150.4,233.3,147.9,233.7,144.9,236.1z"/>
		</g>
	</g>
	<path class="st5" d="M129.5,234c0,0-22.2,1-22.1,4c0,0.4,0.3,2.1,1.2,2.5c7.8,3.7,39.5,5.3,50.7,0.6c2-0.8,2.6-3,2.5-3.7   c-0.5-3.2-19.6-3.4-20.8-3.4C139.4,234,129.5,234,129.5,234z"/>
	<path class="st7" d="M129.5,232.4c0,0-28.6,2.8-20.8,6.5s39.5,5.3,50.7,0.6s-16.8-7.1-18.3-7.1S129.5,232.4,129.5,232.4z"/>
	<path class="st5" d="M112.4,217.8c0,0,4,0.9,3.7,7.1c-0.3,6.2,0.3,9.6,0.3,9.6l-1.9,0.3c0,0-1.2-6.5-1.9-6.5c-0.6,0-2.8,6.8-5.6,9   c-2.8,2.2-6.8,2.5-7.5,1.9s2.5-6.3,4.2-9.7C105.6,226.2,112.4,217.8,112.4,217.8z"/>
	<path class="st6" d="M99.3,208.8c0,0,5.9,7.1,5.9,11.5s-2.8,12.1-2.5,13.4s4.4-2.2,5.9-5.9s3.7-7.8,3.7-9.6c0-1.9-3.4-9.3-3.7-11.2   c-0.3-1.9-9.6-2.5-9.6-2.5S95.9,206.3,99.3,208.8z"/>
	<path class="st5" d="M81.3,240.5c0,0-5.3,1.6-5,4.4c0.2,1.7,4.3,1.9,7.5,1.8c2.1-0.1,4.1-1,5.6-2.5c1.6-1.6,3.6-3.7,4.6-4.9   c1.9-2.2,0,7.5,0,7.5h1.9c0,0,0-5.3,1.6-7.8s0.6-7.8-1.2-9C94.4,228.7,85.3,240.8,81.3,240.5z"/>
	<path class="st6" d="M84.7,200.7c0,0,3.1,20.2,4.4,25.2c1.2,5-5.9,13.7-7.8,14.6c2.8,0.9,4.7,0.6,8.4-3.1s6.5-7.5,6.5-7.5   s0.6-20.5,0-23.9S84.7,200.7,84.7,200.7z"/>
	<path class="st5" d="M147.2,112.1c0,0-10.9,3.7-20.2,13.4s-20.8,25.2-35.1,27.7S72,160,69.2,175c-2.8,14.9-3.7,18-3.7,18   s8.1,7.8,14.6,5c2.8,2.2,11.2,7.8,19.9,9.9s16.8,1.9,16.8,1.9s0-12.4-3.4-18.3c-3.4-5.9,43.2-28.6,43.2-28.6l9.9-18.7   c0,0,1.9-12.6,0.5-17.9c-1.4-5.4-3.9-14.4-7.9-15.9S147.2,112.1,147.2,112.1z"/>
	<path class="st5" d="M136.9,199.8v-7.7h-5v7.6c-2,0.9-3.4,2.9-3.4,5.2v28v0.2c0,0.9,2.6,1.6,5.8,1.6c3.2,0,5.8-0.7,5.8-1.6v-0.2   V205C140.1,202.6,138.8,200.7,136.9,199.8z"/>
	<path class="st8" d="M167.4,132.7c-0.6,4.7-4,20.2-14,25.2c-9.9,5-29.8,5.3-37.3,8.1c0,0-13.7,21.8-9,26.7c5.9,0.9,44.5,0,50-3.4   c5.6-3.4,5.3-10.6,5.3-10.6s-5.9-5-12.7-5.9c8.1-2.8,15.9-6.8,17.7-10.6c1.9-3.7,7.5-28.3,3.7-33c-2-2.5-3.7-5.4-4-5.6   C166.8,123.4,167.8,125.2,167.4,132.7z"/>
	<path class="st7" d="M162.4,178.7c0,0-5.8-5-12.6-5.9c0.1,0,0.1,0,0.2-0.1c-0.2,0.1-19.8,5-18.6,7.5c1.1,2.1,22.9,1.1,31,0   C162.5,179.2,162.4,178.7,162.4,178.7z"/>
	<path class="st6" d="M247.9,219.7c0,0,0.6,5.3-3.4,7.5s-12.1,5-10.9,9c1.2,4,17.7,0,19.6,0c1.9,0,6.2-1.2,5.3-5s-3.5-9.5-3.8-12.8   C254.5,215,247.9,219.7,247.9,219.7z"/>
	<path class="st9" d="M258.6,231.2c-0.4-1.5-1-3.2-1.6-5l-0.2-0.4l-0.1,0.1c-2.3,1.7-5.6,3.8-8.5,4.1c-1.9,0.2-3.2-0.6-4-2.5v-0.1   h-0.1c-0.7,0.3-1.4,0.7-2.2,1.1c-4.2,2-9.4,4.5-8.3,7.8c0.4,1.4,2.6,1.9,5.3,1.9c3.6,0,8.3-0.8,11.4-1.4c1.5-0.2,1.4-0.2,3-0.4   c1.2-0.2,3.6-0.6,4.8-2.1C258.7,233.3,258.9,232.3,258.6,231.2z"/>
	<path class="st6" d="M237.4,225.4c0,0,2.5,13.9,1.6,15.8c-0.9,1.9-12.1,8.4-16.8,9s-7.8-2.5-6.2-5.6s9.9-9.3,11.5-10.9   c1.6-1.6,3.1-6.5,3.1-8.7C230.5,222.8,237.4,225.4,237.4,225.4z"/>
	<path class="st9" d="M238.6,232.9v-0.2l-0.1,0.2c-1.4,1.7-3.3,3.8-5,3.8l0,0c-0.6,0-1.2-0.3-1.6-0.9c-1.1-1.4-2.5-2.1-4.4-2.2l0,0   l0,0c-0.4,0.4-1.4,1.2-2.6,2.2c-3.1,2.5-7.8,6.4-8.9,8.7c-0.6,1.2-0.5,2.6,0.2,3.7c1,1.4,2.8,2.1,4.8,2.1c0.4,0,0.8,0,1.2-0.1   c4.7-0.6,15.9-7.2,16.8-9C239.4,240.4,239.3,237.6,238.6,232.9z"/>
	<path class="st10" d="M250.3,149.1c0,0-5.5,19-2.1,27.7s6.2,17.4,8.1,39.8c-1.9,3.1-10.6,3.7-10.6,3.7s-1.2-3.7-3.1-12.4   C240.8,199.2,243.4,159.1,250.3,149.1z"/>
	<path class="st5" d="M249.8,124.9c0,0,7.8,6.2,1.2,22.4s-4,22.4-4,30.8c0,8.4,0.3,24.6-7.1,46.9c-2.2,0.6-6.8,0.9-10.6,0   c0-5,1.2-64.7,0-75.2s-4.4-18.7-4.4-18.7S247.3,124.6,249.8,124.9z"/>
	<path class="st5" d="M188.6,67.1c0,0,0,7.5-0.9,8.4s-2.8,0.6-3.1-1.9s-0.9-6.5-0.9-6.5S188.6,67.1,188.6,67.1z"/>
	<path class="st6" d="M217.5,75.1c0,0-10.6,1.6-11.5,1.6s-16.5-16.8-18.3-16.8s-9.3,7.5-7.1,8.7c2.2,1.2,5.9-1.6,7.1-0.9   s11.5,16.8,13.4,17.1c1.9,0.3,9.3,1.2,12.4,0.6C216.6,84.8,217.5,75.1,217.5,75.1z"/>
	<path class="st5" d="M187.6,64.1c0,0,7.1-1.1,9.2-6.6c2.1-5.6-1.5-10.9-8.6-7.9s-14.3,14.8-16.3,15.8s-7.1,2-7.1,2l6,8   C170.7,75.5,177.7,65.6,187.6,64.1z"/>
	<path class="st11" d="M220.6,52.5c0,0,5.6,11.2,3.4,23.3c4-1.9,9.9-10.9,12.1-10.9s4,4.7,5,11.5c2.2-0.6,7.1-4.4,7.1-4.4   s-6.8-4.7-12.4-23s-19.9-18.7-26.7-14s-4.7,19.9-1.9,28.3s0.3,13.1,0.3,13.1l9.4-0.9c0,0,2-2.2,3-5.6c1-3.4,1.3-6.2,0.4-9   L220.6,52.5z"/>
	<path class="st6" d="M218.4,45.3c0,0-6.8-7.5-11.2-2.8s3.1,15.5,6.5,17.7s6.2,0.6,6.2,0.6s2.2,6.2-2.5,13.4   c-4.7,7.1-7.1,10.6-1.9,19.3c5.3,8.7,8.1,38.2,8.1,38.2s19.3,1.2,29.8-9c-2.5-5.9-9.6-18.3-11.2-37c-1.6-18.7-3.4-20.2-10.6-26.7   l-11.2-6.5c0,0,3.1-1.2,1.2-5.3C219.9,43.1,218.4,45.3,218.4,45.3z"/>
	<path class="st8" d="M242.3,85.7c-1.2-14.7-2.6-18.8-6.7-23c-2.6,4.5-7.8,10.2-17,9.5c-0.3,0.7-0.7,1.3-1.2,2.1   c-4.7,7.1-7.1,10.6-1.9,19.3c5.3,8.7,8.1,38.2,8.1,38.2s19.3,1.2,29.8-9C251,116.8,243.9,104.4,242.3,85.7z"/>
	<path class="st7" d="M242.3,85.7c-1.1-13-2.3-17.7-5.4-21.6l-14.8,22.2l6.2,5.6l6.8-9.6c0,0-2.3,29.1,7.4,46.8   c3.9-1.3,7.8-3.4,10.9-6.4C251,116.8,243.9,104.4,242.3,85.7z"/>
	<path class="st11" d="M235.8,49c-0.1-0.4-0.2-0.8-0.4-1.2l-14.9,4.6c0,0,5.6,11.2,3.4,23.3c4-1.9,9.9-10.9,12.1-10.9s4,4.7,5,11.5   c2.2-0.6,7.1-4.4,7.1-4.4S241.4,67.4,235.8,49z"/>
	<path class="st6" d="M224.6,88.5l-8.7-6.6c0,0-5.3,6.2-9,7.8s-23.3,3.1-26.7,2.5s-5,5,1.6,5.3s25.8,2.2,30.2,0   C216.2,95.3,224.6,88.5,224.6,88.5z"/>
</g>
</svg>