<?xml version="1.0" encoding="UTF-8"?>
<!-- Generator: Adobe Illustrator 23.0.1, SVG Export Plug-In . SVG Version: 6.00 Build 0)  -->
<svg version="1.1" id="Camada_1" xmlns="http://www.w3.org/2000/svg" xmlns:xlink="http://www.w3.org/1999/xlink" x="0px" y="0px" width="300px" height="237px" viewBox="0 0 300 237" style="enable-background:new 0 0 300 237;" xml:space="preserve">
<style type="text/css">
	.Sombra{fill:none;}
	._x0035__x0020_pontos_x0020__x002D__x0020_Brilho_x0020_externo{fill:none;}
	.Neon_x0020_azul_x0020_{fill:none;stroke:#8AACDA;stroke-width:7;stroke-linecap:round;stroke-linejoin:round;}
	.Realce_x0020_cromo_x0020_{fill:url(#SVGID_1_);stroke:#FFFFFF;stroke-width:0.3629;stroke-miterlimit:1;}
	.Jive_GS{fill:#FFDD00;}
	.Alyssa_GS{fill:#A6D0E4;}
	.st0{opacity:5.000000e-02;}
	.st1{fill:#FF647C;}
	.st2{fill:#282E5E;}
	.st3{fill:#FFC7A6;}
	.st4{fill:#505DBF;}
	.st5{fill:#4651A6;stroke:#4651A6;stroke-width:0.75;stroke-miterlimit:10;}
	.st6{fill:#282E5E;stroke:#282E5E;stroke-width:0.25;stroke-miterlimit:10;}
	.st7{fill:#20254D;}
	.st8{fill:#1B1C1C;}
</style>
<linearGradient id="SVGID_1_" gradientUnits="userSpaceOnUse" x1="0" y1="0" x2="6.123234e-17" y2="-1">
	<stop offset="0" style="stop-color:#656565"/>
	<stop offset="0.618" style="stop-color:#1B1B1B"/>
	<stop offset="0.6292" style="stop-color:#545454"/>
	<stop offset="0.9831" style="stop-color:#3E3E3E"/>
</linearGradient>
<ellipse class="st0" cx="150.5" cy="212.7" rx="147.5" ry="21"/>
<ellipse class="st0" cx="150.5" cy="209.9" rx="106.8" ry="15.2"/>
<path class="st1" d="M159,65.5c0,0-0.6,10.9-4.4,16.5c0,0,1.2-16.8,0.3-19.6C154.1,59.6,159,65.5,159,65.5z"/>
<path class="st2" d="M167.9,66.9c0,0,3.1,1.9,2.8,3.7s-2.2,1.9-4.7,0s-7.8-5.6-9.6-6.5c-1.9-0.9-10.6-9.3-10.3-11.2  c0.3-1.9,3.4-3.1,5.9-0.6c2.5,2.5,9.9,7.5,11.8,10.9C165.7,66.6,167.9,66.9,167.9,66.9z"/>
<path class="st3" d="M123,57.1c0,0-3.4,5-2.5,12.1c-0.3,0.6-2.5,2.5-1.2,3.4c1.2,0.9,1.2,2.8,1.2,4.4s1.2,4.7,7.8,3.1  s4.4-12.1,4.4-12.1S132.3,57.7,123,57.1z"/>
<path class="st1" d="M123,57.1c0,0,2.2-4.7,12.1-3.7s17.7,1.2,20.2,1.2c2.5,0,4.4,3.1,5.3,4.8c-2.2-0.2-4.1,0.1-8.8,0.1  c-4.7,0-7.1,0.6-7.1,0.6s4,8.1,4,32.3c0,3.4,0.9,5.3,1.2,7.1s-0.6,5-0.6,5s0.3-15.2-9.6-20.2c0,0-6.5,7.8-10.3,9.9  c-3.7,2.2-11.8,5.9-6.2,17.7c-1.6-0.6-5.9-4.7-3.4-14.3c2.5-9.6,6.5-4.4,9.3-14.9C132,72.3,129.2,68,123,57.1z"/>
<g>
	<g>
		<path class="st4" d="M126.9,207.8l-1-1.2c3.3-2.7,6.1-3.2,9.7-3.8c4.4-0.7,10.5-1.7,21.2-7.8c8.6-4.9,13-11.1,13.7-19.7    c0.7-7.7-1.8-16.8-4.8-27c-4.1-13.9,0.3-32,3.8-46.5c1.6-6.8,3.2-13.3,3.6-18.1c1.2-14.9-5.2-36.8-5.3-37l1.5-0.4    c0.1,0.2,6.6,22.4,5.3,37.6c-0.4,5-2,11.5-3.6,18.4c-3.5,14.4-7.8,32.2-3.9,45.7c3,10.4,5.5,19.6,4.8,27.6    c-0.7,9.1-5.3,15.7-14.5,20.9c-10.9,6.2-17.2,7.2-21.7,8C132.4,205,129.9,205.4,126.9,207.8z"/>
	</g>
</g>
<path class="st2" d="M111.5,205.7c0,0-22.2,1-22.1,4c0,0.4,0.3,2.1,1.2,2.5c7.8,3.7,39.5,5.3,50.7,0.6c2-0.8,2.6-3,2.5-3.7  c-0.5-3.2-19.6-3.4-20.8-3.4C121.4,205.7,111.5,205.7,111.5,205.7z"/>
<path class="st4" d="M111.5,204.1c0,0-28.6,2.8-20.8,6.5c7.8,3.7,39.5,5.3,50.7,0.6c11.2-4.7-16.8-7.1-18.3-7.1  S111.5,204.1,111.5,204.1z"/>
<path class="st2" d="M94.4,189.5c0,0,4,0.9,3.7,7.1c-0.3,6.2,0.3,9.6,0.3,9.6l-1.9,0.3c0,0-1.2-6.5-1.9-6.5c-0.6,0-2.8,6.8-5.6,9  c-2.8,2.2-6.8,2.5-7.5,1.9s2.5-6.3,4.2-9.7C87.6,197.9,94.4,189.5,94.4,189.5z"/>
<path class="st3" d="M81.3,180.5c0,0,5.9,7.1,5.9,11.5c0,4.4-2.8,12.1-2.5,13.4s4.4-2.2,5.9-5.9s3.7-7.8,3.7-9.6  c0-1.9-3.4-9.3-3.7-11.2c-0.3-1.9-9.6-2.5-9.6-2.5S77.9,178,81.3,180.5z"/>
<path class="st2" d="M63.3,212.2c0,0-5.3,1.6-5,4.4c0.2,1.7,4.3,1.9,7.5,1.8c2.1-0.1,4.1-1,5.6-2.5c1.6-1.6,3.6-3.7,4.6-4.9  c1.9-2.2,0,7.5,0,7.5h1.9c0,0,0-5.3,1.6-7.8c1.6-2.5,0.6-7.8-1.2-9C76.4,200.4,67.3,212.5,63.3,212.2z"/>
<path class="st3" d="M66.7,172.4c0,0,3.1,20.2,4.4,25.2c1.2,5-5.9,13.7-7.8,14.6c2.8,0.9,4.7,0.6,8.4-3.1s6.5-7.5,6.5-7.5  s0.6-20.5,0-23.9S66.7,172.4,66.7,172.4z"/>
<path class="st2" d="M129.2,83.8c0,0-10.9,3.7-20.2,13.4s-20.8,25.2-35.1,27.7c-14.3,2.5-19.9,6.8-22.7,21.8  c-2.8,14.9-3.7,18-3.7,18s8.1,7.8,14.6,5c2.8,2.2,11.2,7.8,19.9,9.9s16.8,1.9,16.8,1.9s0-12.4-3.4-18.3  c-3.4-5.9,43.2-28.6,43.2-28.6l9.9-18.7c0,0,1.9-12.6,0.5-17.9c-1.4-5.4-3.9-14.4-7.9-15.9S129.2,83.8,129.2,83.8z"/>
<path class="st2" d="M118.9,171.5v-7.7h-5v7.6c-2,0.9-3.4,2.9-3.4,5.2v28v0.2c0,0.9,2.6,1.6,5.8,1.6c3.2,0,5.8-0.7,5.8-1.6v-0.2  v-27.9C122.1,174.3,120.8,172.4,118.9,171.5z"/>
<path class="st5" d="M149.4,104.4c-0.6,4.7-4,20.2-14,25.2c-9.9,5-29.8,5.3-37.3,8.1c0,0-13.7,21.8-9,26.7c5.9,0.9,44.5,0,50-3.4  c5.6-3.4,5.3-10.6,5.3-10.6s-5.9-5-12.7-5.9c8.1-2.8,15.9-6.8,17.7-10.6c1.9-3.7,7.5-28.3,3.7-33c-2-2.5-3.7-5.4-4-5.6  C148.8,95.1,149.8,96.9,149.4,104.4z"/>
<path class="st4" d="M144.4,150.4c0,0-5.8-5-12.6-5.9c0.1,0,0.1,0,0.2-0.1c-0.2,0.1-19.8,5-18.6,7.5c1.1,2.1,22.9,1.1,31,0  C144.5,150.9,144.4,150.4,144.4,150.4z"/>
<path class="st3" d="M229.9,191.4c0,0,0.6,5.3-3.4,7.5c-4,2.2-12.1,5-10.9,9c1.2,4,17.7,0,19.6,0c1.9,0,6.2-1.2,5.3-5  s-3.5-9.5-3.8-12.8C236.5,186.7,229.9,191.4,229.9,191.4z"/>
<path class="st6" d="M240.6,202.9c-0.4-1.5-1-3.2-1.6-5l-0.2-0.4l-0.1,0.1c-2.3,1.7-5.6,3.8-8.5,4.1c-1.9,0.2-3.2-0.6-4-2.5l0-0.1  l-0.1,0c-0.7,0.3-1.4,0.7-2.2,1.1c-4.2,2-9.4,4.5-8.3,7.8c0.4,1.4,2.6,1.9,5.3,1.9c3.6,0,8.3-0.8,11.4-1.4c1.5-0.2,1.4-0.2,3-0.4  c1.2-0.2,3.6-0.6,4.8-2.1C240.7,205,240.9,204,240.6,202.9z"/>
<path class="st3" d="M219.4,197.1c0,0,2.5,13.9,1.6,15.8c-0.9,1.9-12.1,8.4-16.8,9c-4.7,0.6-7.8-2.5-6.2-5.6  c1.6-3.1,9.9-9.3,11.5-10.9c1.6-1.6,3.1-6.5,3.1-8.7C212.5,194.5,219.4,197.1,219.4,197.1z"/>
<path class="st6" d="M220.6,204.6l0-0.2l-0.1,0.2c-1.4,1.7-3.3,3.8-5,3.8l0,0c-0.6,0-1.2-0.3-1.6-0.9c-1.1-1.4-2.5-2.1-4.4-2.2h0  l0,0c-0.4,0.4-1.4,1.2-2.6,2.2c-3.1,2.5-7.8,6.4-8.9,8.7c-0.6,1.2-0.5,2.6,0.2,3.7c1,1.4,2.8,2.1,4.8,2.1c0.4,0,0.8,0,1.2-0.1  c4.7-0.6,15.9-7.2,16.8-9C221.4,212.1,221.3,209.3,220.6,204.6z"/>
<path class="st7" d="M232.3,120.8c0,0-5.5,19-2.1,27.7s6.2,17.4,8.1,39.8c-1.9,3.1-10.6,3.7-10.6,3.7s-1.2-3.7-3.1-12.4  C222.8,170.9,225.4,130.8,232.3,120.8z"/>
<path class="st2" d="M231.8,96.6c0,0,7.8,6.2,1.2,22.4s-4,22.4-4,30.8c0,8.4,0.3,24.6-7.1,46.9c-2.2,0.6-6.8,0.9-10.6,0  c0-5,1.2-64.7,0-75.2s-4.4-18.7-4.4-18.7S229.3,96.3,231.8,96.6z"/>
<path class="st2" d="M170.6,38.8c0,0,0,7.5-0.9,8.4c-0.9,0.9-2.8,0.6-3.1-1.9s-0.9-6.5-0.9-6.5H170.6z"/>
<path class="st3" d="M199.5,46.8c0,0-10.6,1.6-11.5,1.6c-0.9,0-16.5-16.8-18.3-16.8s-9.3,7.5-7.1,8.7c2.2,1.2,5.9-1.6,7.1-0.9  s11.5,16.8,13.4,17.1c1.9,0.3,9.3,1.2,12.4,0.6S199.5,46.8,199.5,46.8z"/>
<path class="st2" d="M169.6,35.8c0,0,7.1-1.1,9.2-6.6c2.1-5.6-1.5-10.9-8.6-7.9s-14.3,14.8-16.3,15.8c-2,1-7.1,2-7.1,2l6,8  C152.7,47.2,159.7,37.3,169.6,35.8z"/>
<path class="st8" d="M202.6,24.2c0,0,5.6,11.2,3.4,23.3c4-1.9,9.9-10.9,12.1-10.9s4,4.7,5,11.5c2.2-0.6,7.1-4.4,7.1-4.4  s-6.8-4.7-12.4-23s-19.9-18.7-26.7-14s-4.7,19.9-1.9,28.3s0.3,13.1,0.3,13.1l9.4-0.9c0,0,2-2.2,3-5.6c1-3.4,1.3-6.2,0.4-9  L202.6,24.2z"/>
<path class="st3" d="M200.4,17c0,0-6.8-7.5-11.2-2.8s3.1,15.5,6.5,17.7s6.2,0.6,6.2,0.6s2.2,6.2-2.5,13.4  c-4.7,7.1-7.1,10.6-1.9,19.3c5.3,8.7,8.1,38.2,8.1,38.2s19.3,1.2,29.8-9c-2.5-5.9-9.6-18.3-11.2-37c-1.6-18.7-3.4-20.2-10.6-26.7  l-11.2-6.5c0,0,3.1-1.2,1.2-5.3C201.9,14.8,200.4,17,200.4,17z"/>
<path class="st5" d="M224.3,57.4c-1.2-14.7-2.6-18.8-6.7-23c-2.6,4.5-7.8,10.2-17,9.5c-0.3,0.7-0.7,1.3-1.2,2.1  c-4.7,7.1-7.1,10.6-1.9,19.3c5.3,8.7,8.1,38.2,8.1,38.2s19.3,1.2,29.8-9C233,88.5,225.9,76.1,224.3,57.4z"/>
<path class="st4" d="M224.3,57.4c-1.1-13-2.3-17.7-5.4-21.6L204.1,58l6.2,5.6l6.8-9.6c0,0-2.3,29.1,7.4,46.8  c3.9-1.3,7.8-3.4,10.9-6.4C233,88.5,225.9,76.1,224.3,57.4z"/>
<path class="st8" d="M217.8,20.7c-0.1-0.4-0.2-0.8-0.4-1.2l-14.9,4.6c0,0,5.6,11.2,3.4,23.3c4-1.9,9.9-10.9,12.1-10.9s4,4.7,5,11.5  c2.2-0.6,7.1-4.4,7.1-4.4S223.4,39.1,217.8,20.7z"/>
<path class="st3" d="M206.6,60.2l-8.7-6.6c0,0-5.3,6.2-9,7.8s-23.3,3.1-26.7,2.5c-3.4-0.6-5,5,1.6,5.3s25.8,2.2,30.2,0  C198.2,67,206.6,60.2,206.6,60.2z"/>
</svg>