<?xml version="1.0" encoding="UTF-8"?>
<!-- Generator: Adobe Illustrator 23.0.1, SVG Export Plug-In . SVG Version: 6.00 Build 0)  -->
<svg version="1.1" id="Camada_1" xmlns="http://www.w3.org/2000/svg" xmlns:xlink="http://www.w3.org/1999/xlink" x="0px" y="0px" width="640px" height="360px" viewBox="0 0 640 360" style="enable-background:new 0 0 640 360;" xml:space="preserve">
<style type="text/css">
	.Sombra{fill:none;}
	._x0035__x0020_pontos_x0020__x002D__x0020_Brilho_x0020_externo{fill:none;}
	.Neon_x0020_azul_x0020_{fill:none;stroke:#8AACDA;stroke-width:7;stroke-linecap:round;stroke-linejoin:round;}
	.Realce_x0020_cromo_x0020_{fill:url(#SVGID_1_);stroke:#FFFFFF;stroke-width:0.3629;stroke-miterlimit:1;}
	.Jive_GS{fill:#FFDD00;}
	.Alyssa_GS{fill:#A6D0E4;}
	.st0{fill:#6979F8;}
	.st1{fill:#606FE6;}
	.st2{fill:#5B69DA;}
</style>
<linearGradient id="SVGID_1_" gradientUnits="userSpaceOnUse" x1="0" y1="0" x2="6.123234e-17" y2="-1">
	<stop offset="0" style="stop-color:#656565"/>
	<stop offset="0.618" style="stop-color:#1B1B1B"/>
	<stop offset="0.6292" style="stop-color:#545454"/>
	<stop offset="0.9831" style="stop-color:#3E3E3E"/>
</linearGradient>
<rect class="st0" width="640" height="360"/>
<rect class="st0" width="640" height="360"/>
<path class="st1" d="M37.4,0C21.6,24.8,8.9,51.9,0,80.6v198.8c8.9,28.7,21.6,55.8,37.4,80.6h565.1c15.8-24.8,28.5-51.9,37.4-80.6  V80.6c-8.9-28.7-21.6-55.8-37.4-80.6H37.4z"/>
<path class="st2" d="M34,180c0,68.2,23.9,130.8,63.8,180h444.5c39.9-49.2,63.8-111.8,63.8-180S582.1,49.2,542.2,0H97.8  C57.9,49.2,34,111.8,34,180z"/>
<path class="st1" d="M85,180c0,72.3,32.6,136.9,83.9,180h302.1c51.3-43.1,83.9-107.7,83.9-180S522.4,43.1,471.1,0H168.9  C117.6,43.1,85,107.7,85,180z"/>
<path class="st2" d="M130,180c0,83.6,54,154.6,129,180h122c75-25.4,129-96.4,129-180S456,25.4,381,0H259C184,25.4,130,96.4,130,180z  "/>
<circle class="st0" cx="320" cy="180" r="132"/>
<circle class="st2" cx="320" cy="180" r="76"/>
<circle class="st1" cx="320" cy="180" r="41"/>
<circle class="st0" cx="320" cy="180" r="17"/>
</svg>