<svg version="1" xmlns="http://www.w3.org/2000/svg" width="933.333" height="933.333" viewBox="0 0 700.000000 700.000000"><path d="M345.7 8.6c-.1.1-5.4.4-11.7.8-6.3.4-12.8.8-14.5 1.1-1.6.2-5 .7-7.5 1-6.9.9-16.1 2.4-25.5 4-27.7 4.8-72.6 21.7-96 36-33.5 20.5-62.6 46.1-81.9 72-2.1 2.7-4.5 5.9-5.4 7-2.6 3.2-12.3 18.2-18.1 28-17.2 29.1-32.3 70-38.5 104.5-2.5 13.6-2.6 14.2-3.2 19.5-.3 2.7-.7 6.1-1 7.5-2.5 15.6-2.5 65.9.1 83.5.3 1.6.7 4.8 1 7 3 22.2 12.8 61.2 18.5 74 .5 1.1 2.5 5.8 4.4 10.6C78.1 494 94.2 521 115 546.3c7.1 8.7 24.8 26.5 35.6 35.7 21.8 18.8 55.4 38.4 84.9 49.6 12.9 4.9 35.7 11.7 42.6 12.7 2.4.4 2.5.6 4.2 11.5 1.6 9.9 11.5 23.6 21 29 11.5 6.5 11.4 6.5 53.9 6.6l38.7.2V679v-19.1l.1-6.5 42.8-.1c38.1-.1 54.5-.5 60.7-1.7 1.1-.2 4.2-.7 6.9-1 25.9-3.5 56.8-15.8 78.6-31.3 11.4-8.2 28.5-24.9 36.4-35.6 16.1-21.9 28.2-48.3 33.5-73.4 4-18.7 4.9-28.2 4.6-49.3-.3-23.5-2.9-39.8-9.7-61-5.8-18.2-16.6-39-28.6-55-6.4-8.6-21-23.8-27.6-29-2.5-1.9-4.5-3.9-4.6-4.4 0-.4 2-4 4.5-8 32.1-51.5 37.9-122.7 14.8-181.1-25.8-65.3-82.5-107-153.8-113-12-1-19.8-1.3-20.9-.9-.8.3-1.1 17.2-1.1 56.4.1 30.7.3 56.1.5 56.3.3.3 4.1.8 8.5 1.2 35.7 3 61.6 28.5 66.1 65 4.2 33.7-12.6 66.1-40.8 79-3 1.4-9 3.5-13.4 4.6-7.6 2.1-10.3 2.1-76.4 2.4-37.7.2-70.3.6-72.5.9-20.6 3.1-38.7 10.5-54.5 22.4-12.5 9.3-27.4 28-33.9 42.4-3.2 7.1-7.6 20.5-8.5 25.8-.8 4.9-1.9 14.9-2 18.5l-.1 3 38.3.3 38.2.2v5.8c.1 8.3.1 100.1 0 117.4V525l-4.7-1.9c-61.6-24.3-105.9-78.8-119.7-147.1-1.4-7.2-1.9-9.9-3.2-20-1.3-8.9-1.1-42.5.1-52 2.2-16.1 2.6-18.1 6.1-31.8 5.7-22.2 15.5-44.3 27.8-62.6 6.5-9.8 6.8-10.2 16.7-21.6 20.8-23.8 50.5-43.1 82.9-53.7 8.5-2.8 25.3-6.8 32-7.7 2.5-.3 5.9-.8 7.5-1.1 7.9-1.3 14-1.6 39-2.2 14.9-.3 27.2-.7 27.4-.9.3-.3.5-106.7.2-112.5-.1-1.3-3-1.5-24.2-1.5-13.2 0-24.1.1-24.2.2zm147 382.4c32.3 8.8 52.4 36.4 52.7 72 .1 29.7-12.7 53.5-36.2 67.2-4.3 2.5-15.8 6.7-22.9 8.4-1.6.4-22.9.8-47.4 1l-44.7.3.3-42.7c.2-40.6.3-43.1 2.4-50.1 7.6-25.7 25.1-44.8 49.6-54.1 13.1-5 32.3-5.8 46.2-2z"/></svg>