<?xml version="1.0" encoding="UTF-8"?>
<!-- Generator: Adobe Illustrator 23.0.1, SVG Export Plug-In . SVG Version: 6.00 Build 0)  -->
<svg version="1.1" id="Camada_1" xmlns="http://www.w3.org/2000/svg" xmlns:xlink="http://www.w3.org/1999/xlink" x="0px" y="0px" width="300px" height="300px" viewBox="0 0 300 300" style="enable-background:new 0 0 300 300;" xml:space="preserve">
<style type="text/css">
	.st0{fill:#5B69DA;}
	.st1{fill:#6979F8;}
	.st2{fill:#606FE6;}
	.st3{fill:#323A78;}
	.st4{fill:#FFFFFF;}
	.st5{fill:#00C48C;}
</style>
<g>
	<path class="st0" d="M287.9,182.5l-131,109c-11.8,9.9-29.6,8.2-39.5-3.6L8.5,157c-9.9-11.8-8.2-29.6,3.6-39.5l131-109   c11.8-9.9,29.6-8.2,39.5,3.6l109,131C301.4,154.9,299.8,172.6,287.9,182.5z"/>
	<path class="st1" d="M264.1,176.9L155.8,267c-9.8,8.2-24.5,6.8-32.6-3L33,155.8c-8.2-9.8-6.8-24.5,3-32.6L144.2,33   c9.8-8.2,24.5-6.8,32.6,3L267,144.2C275.2,154,273.9,168.7,264.1,176.9z"/>
	<path class="st2" d="M230.8,169L154,232.9c-6.9,5.8-17.4,4.8-23.1-2.1L67,154c-5.8-6.9-4.8-17.4,2.1-23.1L145.9,67   c6.9-5.8,17.4-4.8,23.1,2.1l63.9,76.8C238.7,152.9,237.8,163.3,230.8,169z"/>
</g>
<circle class="st3" cx="232.6" cy="246.5" r="37"/>
<circle class="st3" cx="213.6" cy="152.5" r="32"/>
<circle class="st3" cx="248.6" cy="67.5" r="27"/>
<g>
	<path class="st4" d="M261.1,59h-4.6v-1.8c0-0.6-0.5-1.1-1.1-1.1h-12.1c-0.6,0-1.1,0.5-1.1,1.1V59h-4.6c-0.6,0-1.1,0.5-1.1,1.1v2.4   c0,2.9,3.4,5.8,7.6,6.3c1.4,2.3,3,3.3,3,3.3v3.2H245c-1.6,0-2.8,0.9-2.8,2.5v0.6c0,0.3,0.3,0.6,0.5,0.6h13.1c0.3,0,0.5-0.3,0.5-0.6   v-0.6c0-1.6-1.3-2.5-2.8-2.5h-2.1v-3.2c0,0,1.6-1,3-3.3c4.2-0.5,7.7-3.3,7.7-6.3V60C262.2,59.5,261.7,59,261.1,59z M239.5,62.5   v-0.7h2.8c0.1,1.4,0.3,2.7,0.6,3.8C240.8,64.9,239.5,63.5,239.5,62.5z M259.3,62.5c0,0.9-1.3,2.4-3.4,3.1c0.3-1.1,0.5-2.4,0.6-3.8   h2.8V62.5L259.3,62.5z M253.7,62.8l-1.7,1.7l0.4,2.4c0.1,0.4-0.4,0.8-0.8,0.6l-2.2-1.2l-2.2,1.2c-0.4,0.2-0.8-0.2-0.8-0.6l0.4-2.4   l-1.8-1.7c-0.3-0.3-0.2-0.8,0.3-0.9l2.4-0.4l1.1-2.2c0.2-0.4,0.8-0.4,1,0l1.1,2.2l2.4,0.4C253.8,61.9,254,62.4,253.7,62.8   L253.7,62.8z"/>
</g>
<g>
	<g>
		<title/>
		<g id="icomoon-ignore_2_">
		</g>
		<path class="st4" d="M217.6,152.2l10.8-10.9c0.3-0.3,0.3-0.8,0-1.1c-2.1-2.1-5.6-2.1-7.7,0l-7.5,7.5l-1.6-1.6    c0.3-0.7,0.4-1.5,0.4-2.3c0-3.5-2.8-6.3-6.3-6.3s-6.3,2.8-6.3,6.3s2.8,6.3,6.3,6.3c0.3,0,0.6,0,0.9-0.1l2.1,2.1l-2.1,2.1    c-0.3-0.1-0.6-0.1-0.9-0.1c-3.5,0-6.3,2.8-6.3,6.3s2.8,6.3,6.3,6.3s6.3-2.8,6.3-6.3c0-0.8-0.2-1.6-0.4-2.3l1.6-1.6l7.5,7.5    c2.1,2.1,5.6,2.1,7.7,0c0.3-0.3,0.3-0.8,0-1.1L217.6,152.2L217.6,152.2z M205.7,145.9c-1.1,0-2-0.9-2-2s0.9-2,2-2s2,0.9,2,2    S206.8,145.9,205.7,145.9L205.7,145.9z M205.7,162.6c-1.1,0-2-0.9-2-2s0.9-2,2-2s2,0.9,2,2C207.8,161.6,206.8,162.6,205.7,162.6    L205.7,162.6z"/>
	</g>
</g>
<g>
	<g>
		<path class="st4" d="M231.4,239.7L219.1,250v11.2c0,0.6,0.5,1.1,1.1,1.1h8c0.6,0,1.1-0.5,1.1-1.1v-6.5c0-0.6,0.5-1.1,1.1-1.1h4.1    c0.6,0,1.1,0.5,1.1,1.1v6.5c0,0.6,0.5,1.1,1.1,1.1h-0.3h7.6c0.6,0,1.1-0.5,1.1-1.1V250l-12.6-10.3    C232.2,239.5,231.8,239.5,231.4,239.7L231.4,239.7z M251.3,246.4l-17.2-14.2c-1.3-1-3-1-4.1,0l-17.2,14.2    c-0.4,0.3-0.4,0.8-0.2,1.2l0,0l1.7,2.1c0.3,0.4,0.8,0.4,1.2,0.2l0,0l16-13.1c0.3-0.2,0.7-0.2,1,0l16,13.1c0.4,0.3,0.9,0.2,1.2-0.2    l0,0l1.7-2.1C251.8,247.2,251.7,246.7,251.3,246.4L251.3,246.4L251.3,246.4z"/>
	</g>
</g>
<rect x="28" y="27" class="st4" width="128" height="223"/>
<g>
	<path class="st3" d="M147,14.7H37c-7.2,0-13,5.9-13,13v217.5c0,7.2,5.9,13,13,13h110c7.2,0,13-5.9,13-13V27.8   C160,20.6,154.1,14.7,147,14.7z M76.8,22.1h29.4c0.8,0,1.4,0.6,1.4,1.4s-0.6,1.4-1.4,1.4H76.8c-0.8,0-1.4-0.6-1.4-1.4   S76.1,22.1,76.8,22.1z M154.5,245.2c0,2.1-1.7,3.8-3.8,3.8H33.4c-2.1,0-3.8-1.7-3.8-3.8v-211c0-2.1,1.7-3.8,3.8-3.8h117.3   c2.1,0,3.8,1.7,3.8,3.8L154.5,245.2L154.5,245.2z"/>
</g>
<path class="st5" d="M121.4,111.2l-36.2,36.2L66.7,129c-2.1-2.1-5.6-2.1-7.8,0c-2.1,2.1-2.1,5.6,0,7.8l22.3,22.3l0,0l0,0l0,0  c2.1,2.1,5.6,2.1,7.8,0l40.1-40.1c2.1-2.1,2.1-5.6,0-7.8l0,0C127.1,109.1,123.6,109.1,121.4,111.2z"/>
</svg>