<?xml version="1.0" encoding="UTF-8"?>
<!-- Generator: Adobe Illustrator 23.0.1, SVG Export Plug-In . SVG Version: 6.00 Build 0)  -->
<svg version="1.1" xmlns="http://www.w3.org/2000/svg" xmlns:xlink="http://www.w3.org/1999/xlink" x="0px" y="0px" width="300px" height="300px" viewBox="0 0 300 300" style="enable-background:new 0 0 300 300;" xml:space="preserve">
<style type="text/css">
	.st0{fill:#5B69DA;}
	.st1{fill:#6979F8;}
	.st2{fill:#606FE6;}
	.st3{fill:#F5F7F9;}
	.st4{fill:#FFFFFF;stroke:#E6E9EB;stroke-width:0.5;stroke-miterlimit:10;}
	.st5{fill:#323A78;}
	.st6{fill:#B6B6B6;}
	.st7{fill:#E8E8E8;}
</style>
<g id="Camada_2">
	<path class="st0" d="M287.9,182.5l-131,109c-11.8,9.9-29.6,8.2-39.5-3.6L8.5,157c-9.9-11.8-8.2-29.6,3.6-39.5l131-109   c11.8-9.9,29.6-8.2,39.5,3.6l109,131C301.4,154.9,299.8,172.6,287.9,182.5z"/>
	<path class="st1" d="M264.1,176.9L155.8,267c-9.8,8.2-24.5,6.8-32.6-3L33,155.8c-8.2-9.8-6.8-24.5,3-32.6L144.2,33   c9.8-8.2,24.5-6.8,32.6,3L267,144.2C275.2,154,273.9,168.7,264.1,176.9z"/>
	<path class="st2" d="M230.8,169l-76.8,63.9c-6.9,5.8-17.4,4.8-23.1-2.1l-63.9-76.8c-5.8-6.9-4.8-17.4,2.1-23.1l76.8-63.9   c6.9-5.8,17.4-4.8,23.1,2.1l63.9,76.8C238.7,152.9,237.8,163.3,230.8,169z"/>
</g>
<g id="Camada_1">
	<g>
		<path class="st3" d="M31.4,184.6l38.3,46l116.4,36.7l56.2-46.8l31.2-99l-91-109.3C172.6,0.2,154.9-1.4,143,8.5L66.9,71.8    L31.4,184.6z"/>
		<path class="st3" d="M186.3,267.8L69.5,231l-0.1-0.1l-38.5-46.2L66.5,71.5l0.1-0.1l76.1-63.3c5.8-4.9,13.2-7.1,20.8-6.5    c7.6,0.7,14.5,4.3,19.3,10.1l91.2,109.6l-31.3,99.4l-0.1,0.1L186.3,267.8z M70,230.1l116,36.5l55.9-46.5l31-98.6L182.1,12.4    C172.4,0.7,155-0.9,143.4,8.9l-76,63.3L32,184.4L70,230.1z"/>
	</g>
	<g>
		<polygon class="st3" points="47.2,134.6 21.7,215.4 223.9,279.1 269.4,134.6   "/>
	</g>
	<polygon class="st4" points="34.5,180.8 236.2,241.2 223.9,279.1 21.7,215.4  "/>
	<g>
		<path class="st5" d="M266.2,136.5l-42.3,134.3h0c-1,3.3-4.6,5.2-7.9,4.1L30.7,216.6c-3.3-1-5.2-4.6-4.1-7.9L61,99.6h-9.7    L17.8,205.9c-3.6,11.4,2.9,23.5,14.1,27l173.7,54.7c11.4,3.6,23.5-2.9,27-14.1l43.2-137.1H266.2z"/>
	</g>
	<g>
		<polygon class="st5" points="173.8,277.6 187.7,266 67.8,228.2 85.8,249.9   "/>
		<polygon class="st5" points="57.5,79.7 26.4,178.5 33.5,187 70.7,68.7   "/>
		<polygon class="st5" points="278.6,127.5 271.6,119.2 238.8,223.4 251.8,212.6   "/>
	</g>
	<g>
		<g>
			<title/>
			<g id="icomoon-ignore_2_">
			</g>
			<path class="st6" d="M148.6,246.8c1.4,0.4,2.9-0.3,3.4-1.8l-5.2-1.6C146.3,244.9,147.1,246.4,148.6,246.8L148.6,246.8z      M159.1,243.4c-0.5-1.1-1.6-2.8-0.4-6.9c0.9-3.1-0.5-6.4-3.3-7.8l0.3-0.8c0.2-0.7-0.2-1.5-0.9-1.7s-1.5,0.2-1.7,0.9l-0.3,0.8     c-3.2-0.3-6.1,1.6-7.1,4.7c-1.2,4.1-3.1,5-4.1,5.6c-0.3,0.2-0.5,0.5-0.6,0.8c-0.2,0.7,0.1,1.4,0.9,1.7l15.5,4.7     c0.8,0.2,1.5-0.2,1.7-0.9C159.3,244.1,159.2,243.7,159.1,243.4L159.1,243.4z"/>
		</g>
	</g>
	<g>
		<g>
			<path class="st1" d="M66.2,210.9l-18-5.9c-0.7-0.2-1.2-1.1-0.9-1.8l0,0c0.2-0.7,1.1-1.2,1.8-0.9l18,5.9c0.7,0.2,1.2,1.1,0.9,1.8     l0,0C67.7,210.8,66.9,211.1,66.2,210.9z"/>
			<path class="st1" d="M68.8,202.8l-18-5.9c-0.7-0.2-1.2-1.1-0.9-1.8l0,0c0.2-0.7,1.1-1.2,1.8-0.9l18,5.9c0.7,0.2,1.2,1.1,0.9,1.8     l0,0C70.4,202.7,69.6,203.1,68.8,202.8z"/>
			<path class="st1" d="M63.5,219l-18-5.9c-0.7-0.2-1.2-1.1-0.9-1.8l0,0c0.2-0.7,1.1-1.2,1.8-0.9l18,5.9c0.7,0.2,1.2,1.1,0.9,1.8     l0,0C65.1,218.8,64.3,219.2,63.5,219z"/>
		</g>
	</g>
	<g>
		<g>
			<title/>
			<g id="icomoon-ignore_3_">
			</g>
			<path class="st6" d="M115.2,224.5c-1.7,5.8-7.8,9.1-13.6,7.4c-5.8-1.7-9.1-7.7-7.4-13.6c1.7-5.8,7.8-9.1,13.6-7.4     C113.6,212.6,116.9,218.7,115.2,224.5z M107.1,214.5c-2.3-0.7-4.1-0.2-5.7,1.3c-0.2,0.2-0.2,0.5-0.1,0.7l1.1,1.5     c0.2,0.2,0.5,0.3,0.7,0.1c1-0.7,1.7-1.1,2.9-0.8c0.8,0.2,1.8,1.1,1.5,2c-0.2,0.6-0.8,0.8-1.8,1c-1.1,0.3-2.7,0.6-3.2,2.3l0,0.2     c-0.1,0.3,0.1,0.6,0.4,0.7l2.4,0.7c0.3,0.1,0.6-0.1,0.7-0.4l0,0c0.3-1.2,3.9-0.2,4.8-3.4C111.4,217.8,109.5,215.2,107.1,214.5     L107.1,214.5z M103.7,224.9c-1-0.3-2.2,0.3-2.6,1.4s0.3,2.2,1.4,2.6s2.2-0.3,2.6-1.4C105.4,226.3,104.7,225.2,103.7,224.9z"/>
		</g>
	</g>
	<g>
		<circle class="st7" cx="196.6" cy="250.1" r="12"/>
		<g>
			<circle class="st6" cx="197.3" cy="247.4" r="5.6"/>
			<g>
				<polygon class="st6" points="198.6,254 198.6,254 198.6,254     "/>
				<path class="st6" d="M198.6,254c-1,0.2-2.1,0.2-3.2-0.2c-1.1-0.3-2-0.9-2.7-1.6c-2.7-0.1-5.3,1.3-6.5,3.8c1.5,2.6,3.9,4.6,7,5.5      c3,0.9,6.2,0.5,8.8-0.8C202.3,258.1,201,255.4,198.6,254z"/>
			</g>
		</g>
	</g>
	<circle class="st5" cx="230.6" cy="72.4" r="36.5"/>
	<circle class="st5" cx="141" cy="96.8" r="26.1"/>
	<circle class="st5" cx="114" cy="36" r="10.9"/>
</g>
</svg>