<?xml version="1.0" encoding="UTF-8"?>
<!-- Generator: Adobe Illustrator 23.0.1, SVG Export Plug-In . SVG Version: 6.00 Build 0)  -->
<svg version="1.1" xmlns="http://www.w3.org/2000/svg" xmlns:xlink="http://www.w3.org/1999/xlink" x="0px" y="0px" width="300px" height="300px" viewBox="0 0 300 300" style="enable-background:new 0 0 300 300;" xml:space="preserve">
<style type="text/css">
	.st0{fill:#5B69DA;}
	.st1{fill:#6979F8;}
	.st2{fill:#606FE6;}
	.st3{fill:#FFFFFF;}
</style>
<g id="Camada_2">
	<path class="st0" d="M81.4,274L11.9,118.4C5.6,104.3,12,87.7,26,81.4l155.6-69.5c14.1-6.3,30.7,0.1,37,14.2l69.5,155.6   c6.3,14.1-0.1,30.7-14.2,37l-155.6,69.5C104.3,294.4,87.7,288,81.4,274z"/>
	<path class="st1" d="M93.3,252.5L35.8,123.9c-5.2-11.6,0.1-25.4,11.7-30.6l128.7-57.5c11.6-5.2,25.4,0.1,30.6,11.7l57.5,128.7   c5.2,11.6-0.1,25.4-11.7,30.6l-128.7,57.5C112.2,269.4,98.5,264.2,93.3,252.5z"/>
	<path class="st2" d="M109.8,222.7L69,131.5c-3.7-8.2,0-18,8.3-21.7L168.5,69c8.2-3.7,18,0,21.7,8.3l40.7,91.2   c3.7,8.2,0,18-8.3,21.7L131.5,231C123.2,234.6,113.5,230.9,109.8,222.7z"/>
	<g>
		<path class="st3" d="M151.9,83.6c-36.7,0-66.4,29.8-66.4,66.4s29.8,66.4,66.4,66.4s66.4-29.8,66.4-66.4S188.6,83.6,151.9,83.6z     M192.6,132.7l-45.7,45.7c-2.4,2.4-5.6,2.4-8,0L115.5,155c-2.4-2.4-2.4-5.6,0-8s5.6-2.4,8,0l19.1,19.4l41.7-41.4    c2.4-2.4,5.6-2.4,8,0C194.7,127.2,194.7,130.6,192.6,132.7z"/>
	</g>
</g>
<g id="Camada_1">
	<g>
		<g>
			<title/>
			<g id="icomoon-ignore_2_">
			</g>
		</g>
	</g>
</g>
</svg>