<?xml version="1.0" encoding="UTF-8"?>
<!-- Generator: Adobe Illustrator 23.0.1, SVG Export Plug-In . SVG Version: 6.00 Build 0)  -->
<svg version="1.1" xmlns="http://www.w3.org/2000/svg" xmlns:xlink="http://www.w3.org/1999/xlink" x="0px" y="0px" width="300px" height="300px" viewBox="0 0 300 300" style="enable-background:new 0 0 300 300;" xml:space="preserve">
<style type="text/css">
	.st0{fill:#5B69DA;}
	.st1{fill:#6979F8;}
	.st2{fill:#606FE6;}
	.st3{fill:#323A78;}
	.st4{fill:#FFFFFF;}
	.st5{fill:#00C48C;}
</style>
<g id="Camada_2">
	<path class="st0" d="M180.6,288.4L25.5,217.7c-14-6.4-20.3-23.1-13.9-37.1L82.3,25.5c6.4-14,23.1-20.3,37.1-13.9l155.1,70.7   c14,6.4,20.3,23.1,13.9,37.1l-70.7,155.1C211.3,288.5,194.6,294.8,180.6,288.4z"/>
	<path class="st1" d="M175.3,264.4L47.1,206c-11.6-5.3-16.8-19.1-11.5-30.7L94,47.1c5.3-11.6,19.1-16.8,30.7-11.5L252.9,94   c11.6,5.3,16.8,19.1,11.5,30.7L206,252.9C200.7,264.5,186.9,269.7,175.3,264.4z"/>
	<path class="st2" d="M167.9,231.1L77,189.7c-8.2-3.7-11.9-13.5-8.1-21.8L110.3,77c3.7-8.2,13.5-11.9,21.8-8.1l90.9,41.4   c8.2,3.7,11.9,13.5,8.1,21.8L189.7,223C185.9,231.2,176.1,234.8,167.9,231.1z"/>
</g>
<g id="Camada_1">
	<circle class="st3" cx="107.3" cy="243.6" r="37"/>
	<circle class="st3" cx="67.1" cy="130.3" r="49.2"/>
	
		<rect x="162.6" y="26.3" transform="matrix(0.9688 -0.2477 0.2477 0.9688 -22.419 56.9157)" class="st4" width="104.7" height="182.5"/>
	<g>
		<path class="st3" d="M233.5,8.2l-87.2,22.3c-5.7,1.5-9.1,7.3-7.7,12.9l44.1,172.4c1.5,5.7,7.3,9.1,12.9,7.7l87.2-22.3    c5.7-1.5,9.1-7.3,7.7-12.9L246.4,16C245,10.3,239.1,6.8,233.5,8.2z M179.3,28.3l23.3-6c0.6-0.2,1.2,0.2,1.4,0.8    c0.2,0.6-0.2,1.2-0.8,1.4l-23.3,6c-0.6,0.2-1.2-0.2-1.4-0.8C178.3,29.1,178.7,28.5,179.3,28.3z M286.1,189.5    c0.4,1.7-0.6,3.4-2.2,3.8l-93,23.8c-1.7,0.4-3.4-0.6-3.8-2.2L144.3,47.5c-0.4-1.7,0.6-3.4,2.2-3.8l93-23.8    c1.7-0.4,3.4,0.6,3.8,2.2L286.1,189.5L286.1,189.5z"/>
	</g>
	<g>
		<g>
			<g>
				<path class="st5" d="M238.6,127.8l-10.9-4.6c-0.9-0.4-2-0.1-2.7,0.7l-4.9,5.9c-7.6-3.5-13.6-9.7-17.3-17.3l5.9-4.9      c0.8-0.6,1.1-1.7,0.7-2.7L204.8,94c-0.4-1-1.6-1.6-2.7-1.3L192,95c-1,0.2-1.7,1.2-1.7,2.2c0,25,20.2,45.2,45.2,45.2      c1.1,0,2-0.7,2.3-1.8l2.3-10.2C240.3,129.4,239.7,128.3,238.6,127.8L238.6,127.8z"/>
			</g>
		</g>
	</g>
	<g>
		<g>
			<title/>
			<g id="icomoon-ignore_2_">
			</g>
		</g>
	</g>
	<g>
		<ellipse transform="matrix(0.7314 -0.6819 0.6819 0.7314 -84.5111 83.4587)" class="st4" cx="63.7" cy="149" rx="6.9" ry="6.9"/>
		<path class="st4" d="M66.2,105.8c-8-0.3-13.2,2.9-17.4,8.9c-0.6,0.7-0.4,1.7,0.4,2.3l5,4c0.7,0.6,1.9,0.5,2.5-0.2    c2.7-3.3,4.6-5.1,8.6-5c2.9,0.1,6.6,2.1,6.5,5c-0.1,2.2-1.9,3.3-5,4.8c-3.4,1.8-8.2,4.1-8.4,10.1l0,0.6c0,1,0.7,1.8,1.7,1.8    l8.3,0.3c1,0,1.8-0.7,1.8-1.7l0-0.1c0.1-4.1,12.4-3.8,12.8-15.2C83.1,112.9,74.5,106,66.2,105.8z"/>
	</g>
	<g>
		<g>
			<title/>
			<g id="icomoon-ignore_3_">
			</g>
			<path class="st4" d="M107.4,243.6c4.4,0,8-3.5,8-8s-3.5-8-8-8c-4.5,0-7.9,3.6-7.9,8S103,243.6,107.4,243.6z M112.9,245.8h-0.6     c-1.5,0.7-3.1,1.1-4.9,1.1c-1.8,0-3.3-0.4-4.9-1.1h-0.6c-4.5,0-8.1,3.6-8.1,8.2v2c0,1.9,1.5,3.4,3.4,3.4h20.4     c1.8,0,3.4-1.5,3.4-3.4v-2C121,249.5,117.4,245.8,112.9,245.8L112.9,245.8z"/>
		</g>
	</g>
</g>
</svg>